HIERARCHY
ROOT hip
{
  OFFSET 0.0 0.0 0.0
  CHANNELS 6 Xposition Yposition Zposition Zrotation Yrotation Xrotation
  JOINT abdomen
  {
    OFFSET 0.0 20.6881 -0.73152
    CHANNELS 3 Zrotation Xrotation Yrotation
    JOINT chest
    {
      OFFSET 0.0 11.7043 -0.48768
      CHANNELS 3 Zrotation Xrotation Yrotation
      JOINT neck
      {
        OFFSET 0.0 22.1894 -2.19456
        CHANNELS 3 Zrotation Xrotation Yrotation
        JOINT head
        {
          OFFSET -0.24384 7.07133 1.2192
          CHANNELS 3 Zrotation Xrotation Yrotation
          JOINT leftEye
          {
            OFFSET 4.14528 8.04674 8.04672
            CHANNELS 3 Zrotation Xrotation Yrotation
            End Site
            {
              OFFSET 1.0 0.0 0.0
            }
          }
          JOINT rightEye
          {
            OFFSET -3.6576 8.04674 8.04672
            CHANNELS 3 Zrotation Xrotation Yrotation
            End Site
            {
              OFFSET 1.0 0.0 0.0
            }
          }
        }
      }
      JOINT rCollar
      {
        OFFSET -2.68224 19.2634 -4.8768
        CHANNELS 3 Zrotation Xrotation Yrotation
        JOINT rShldr
        {
          OFFSET -8.77824 -1.95073 1.46304
          CHANNELS 3 Zrotation Xrotation Yrotation
          JOINT rForeArm
          {
            OFFSET -28.1742 -1.7115 0.48768
            CHANNELS 3 Zrotation Xrotation Yrotation
            JOINT rHand
            {
              OFFSET -22.5879 0.773209 7.07136
              CHANNELS 3 Zrotation Xrotation Yrotation
              JOINT rThumb1
              {
                OFFSET -1.2192 -0.487915 3.41376
                CHANNELS 3 Zrotation Xrotation Yrotation
                JOINT rThumb2
                {
                  OFFSET -3.37035 -0.52449 3.41376
                  CHANNELS 3 Zrotation Xrotation Yrotation
                  End Site
                  {
                    OFFSET -1.78271 -1.18214 1.43049
                  }
                }
              }
              JOINT rIndex1
              {
                OFFSET -7.75947 0.938293 5.60832
                CHANNELS 3 Zrotation Xrotation Yrotation
                JOINT rIndex2
                {
                  OFFSET -2.54057 -0.884171 1.56538
                  CHANNELS 3 Zrotation Xrotation Yrotation
                  End Site
                  {
                    OFFSET -1.62519 -0.234802 1.16502
                  }
                }
              }
              JOINT rMid1
              {
                OFFSET -8.24714 1.18213 3.41376
                CHANNELS 3 Zrotation Xrotation Yrotation
                JOINT rMid2
                {
                  OFFSET -3.10165 -0.590103 1.0647
                  CHANNELS 3 Zrotation Xrotation Yrotation
                  End Site
                  {
                    OFFSET -2.48547 -0.328903 0.83742
                  }
                }
              }
              JOINT rRing1
              {
                OFFSET -8.82822 0.546677 1.51678
                CHANNELS 3 Zrotation Xrotation Yrotation
                JOINT rRing2
                {
                  OFFSET -2.60934 -0.819778 -0.0198488
                  CHANNELS 3 Zrotation Xrotation Yrotation
                  End Site
                  {
                    OFFSET -2.33842 -0.294052 0.168128
                  }
                }
              }
              JOINT rPinky1
              {
                OFFSET -8.27202 -0.0477905 -0.4584
                CHANNELS 3 Zrotation Xrotation Yrotation
                JOINT rPinky2
                {
                  OFFSET -1.82734 -0.647385 -0.700984
                  CHANNELS 3 Zrotation Xrotation Yrotation
                  End Site
                  {
                    OFFSET -1.69225 -0.51767 -0.607171
                  }
                }
              }
            }
          }
        }
      }
      JOINT lCollar
      {
        OFFSET 2.68224 19.2634 -4.8768
        CHANNELS 3 Zrotation Xrotation Yrotation
        JOINT lShldr
        {
          OFFSET 8.77824 -1.95073 1.46304
          CHANNELS 3 Zrotation Xrotation Yrotation
          JOINT lForeArm
          {
            OFFSET 28.1742 -1.7115 0.48768
            CHANNELS 3 Zrotation Xrotation Yrotation
            JOINT lHand
            {
              OFFSET 22.5879 0.773209 7.07136
              CHANNELS 3 Zrotation Xrotation Yrotation
              JOINT lThumb1
              {
                OFFSET 1.2192 -0.487915 3.41376
                CHANNELS 3 Zrotation Xrotation Yrotation
                JOINT lThumb2
                {
                  OFFSET 3.37035 -0.52449 3.41376
                  CHANNELS 3 Zrotation Xrotation Yrotation
                  End Site
                  {
                    OFFSET 1.78271 -1.18214 1.43049
                  }
                }
              }
              JOINT lIndex1
              {
                OFFSET 7.75947 0.938293 5.60832
                CHANNELS 3 Zrotation Xrotation Yrotation
                JOINT lIndex2
                {
                  OFFSET 2.54057 -0.884171 1.56538
                  CHANNELS 3 Zrotation Xrotation Yrotation
                  End Site
                  {
                    OFFSET 1.62519 -0.234802 1.16502
                  }
                }
              }
              JOINT lMid1
              {
                OFFSET 8.24714 1.18213 3.41376
                CHANNELS 3 Zrotation Xrotation Yrotation
                JOINT lMid2
                {
                  OFFSET 3.10165 -0.590103 1.0647
                  CHANNELS 3 Zrotation Xrotation Yrotation
                  End Site
                  {
                    OFFSET 2.48547 -0.328903 0.83742
                  }
                }
              }
              JOINT lRing1
              {
                OFFSET 8.82822 0.546677 1.51678
                CHANNELS 3 Zrotation Xrotation Yrotation
                JOINT lRing2
                {
                  OFFSET 2.60934 -0.819778 -0.0198488
                  CHANNELS 3 Zrotation Xrotation Yrotation
                  End Site
                  {
                    OFFSET 2.33842 -0.294052 0.168128
                  }
                }
              }
              JOINT lPinky1
              {
                OFFSET 8.27202 -0.0477905 -0.4584
                CHANNELS 3 Zrotation Xrotation Yrotation
                JOINT lPinky2
                {
                  OFFSET 1.82734 -0.647385 -0.700984
                  CHANNELS 3 Zrotation Xrotation Yrotation
                  End Site
                  {
                    OFFSET 1.69225 -0.51767 -0.607171
                  }
                }
              }
            }
          }
        }
      }
    }
  }
  JOINT rButtock
  {
    OFFSET -8.77824 4.35084 1.2192
    CHANNELS 3 Zrotation Xrotation Yrotation
    JOINT rThigh
    {
      OFFSET 0.0 -1.70687 -2.19456
      CHANNELS 3 Zrotation Xrotation Yrotation
      JOINT rShin
      {
        OFFSET 0.0 -36.8199 0.73152
        CHANNELS 3 Zrotation Xrotation Yrotation
        JOINT rFoot
        {
          OFFSET 0.73152 -45.1104 -5.12064
          CHANNELS 3 Zrotation Xrotation Yrotation
          End Site
          {
            OFFSET -1.1221 -3.69964 12.103
          }
        }
      }
    }
  }
  JOINT lButtock
  {
    OFFSET 8.77824 4.35084 1.2192
    CHANNELS 3 Zrotation Xrotation Yrotation
    JOINT lThigh
    {
      OFFSET 0.0 -1.70687 -2.19456
      CHANNELS 3 Zrotation Xrotation Yrotation
      JOINT lShin
      {
        OFFSET 0.0 -36.8199 0.73152
        CHANNELS 3 Zrotation Xrotation Yrotation
        JOINT lFoot
        {
          OFFSET -0.73152 -45.1104 -5.12064
          CHANNELS 3 Zrotation Xrotation Yrotation
          End Site
          {
            OFFSET 1.1221 -3.69964 12.103
          }
        }
      }
    }
  }
}
MOTION
Frames: 8
Frame Time: 0.00833333
109.089 78.7107 -35.7597 -726.093 -83.6505 744.156 4.6536 30.2216 -4.34036 -0.934655 -9.01373 -1.04763 1.82732 16.5171 -0.879704 1.73251 -38.7458 -1.25398 -0.0 0.0 0.0 -0.0 0.0 0.0 5.87095e-14 4.69104e-12 6.0033e-14 81.0479 23.2868 3.52477 -12.6014 -5.8794 22.78 -0.00174228 1.19179 0.167519 9.29937e-10 -3.96558e-10 -8.26832e-09 1.5835e-09 -6.86176e-10 -1.4295e-08 9.29938e-10 -3.96554e-10 -8.26832e-09 7.73091 5.47488 0.417314 9.29932e-10 -3.96558e-10 -8.26831e-09 2.90554 0.965183 0.102902 9.29944e-10 -3.96555e-10 -8.26832e-09 10.2786 0.731801 0.0259123 9.2994e-10 -3.96556e-10 -8.26832e-09 2.22167 -0.733487 -0.20892 5.8695e-14 4.68787e-12 5.94863e-14 -80.1817 27.2121 -0.833346 13.3838 -6.46781 -24.3222 0.822207 -24.846 3.73121 1.94569e-09 -4.52902e-10 7.22527e-09 3.2571e-09 -7.62277e-10 1.25138e-08 1.94568e-09 -4.52899e-10 7.2253e-09 -7.73091 5.47488 -0.417314 1.94569e-09 -4.52902e-10 7.22528e-09 -2.90554 0.965183 -0.102902 1.94568e-09 -4.52903e-10 7.22528e-09 -10.2786 0.731801 -0.0259123 1.94569e-09 -4.52902e-10 7.22528e-09 -2.22167 -0.733487 0.20892 -2.03217e-16 0.0 -3.88251e-19 8.27445 -52.4092 4.02667 -0.421938 43.3202 0.73032 -4.12427 -9.54691 -14.1332 2.03217e-16 0.0 3.88251e-19 10.6573 -46.5709 9.16751 3.66383 77.4161 -4.4173 0.0283015 -0.235431 -8.41922
108.384 78.7684 -35.8795 -727.34 -83.6299 745.587 4.67159 30.2068 -4.22123 -0.908454 -9.07946 -1.01272 1.83803 16.5028 -0.88503 1.72969 -38.7397 -1.2662 -0.0 0.0 0.0 -0.0 0.0 0.0 4.75078e-14 3.85296e-12 4.86634e-14 80.9904 23.2447 3.53774 -12.5856 -5.86799 22.7491 -0.00190063 1.24914 0.175583 9.02279e-10 -4.17664e-10 -6.974e-09 1.53915e-09 -7.22863e-10 -1.20567e-08 9.02281e-10 -4.17662e-10 -6.974e-09 7.73091 5.47488 0.417314 9.02275e-10 -4.17665e-10 -6.97399e-09 2.90554 0.965183 0.102902 9.02286e-10 -4.17662e-10 -6.974e-09 10.2786 0.731801 0.0259123 9.02281e-10 -4.17662e-10 -6.974e-09 2.22167 -0.733487 -0.20892 4.74396e-14 3.85117e-12 4.81653e-14 -80.1935 27.3451 -0.873277 13.4241 -6.49902 -24.4023 0.82607 -24.8999 3.74043 1.69906e-09 -4.49577e-10 6.10798e-09 2.84746e-09 -7.59724e-10 1.05787e-08 1.69905e-09 -4.49575e-10 6.108e-09 -7.73091 5.47488 -0.417314 1.69906e-09 -4.49577e-10 6.10799e-09 -2.90554 0.965183 -0.102902 1.69905e-09 -4.49578e-10 6.10799e-09 -10.2786 0.731801 -0.0259123 1.69906e-09 -4.49577e-10 6.10798e-09 -2.22167 -0.733487 0.20892 -2.03217e-16 0.0 -3.88251e-19 8.57196 -52.1389 4.02849 -0.422209 43.4113 0.743663 -4.20273 -9.9329 -14.0725 2.03217e-16 0.0 3.88251e-19 10.7052 -48.1968 8.98036 3.75769 77.6425 -4.4929 -0.0376299 -0.815558 -8.10037
107.677 78.8162 -35.9888 -728.49 -83.6434 746.902 4.63713 30.2178 -4.07539 -0.874893 -9.15304 -0.973336 1.84535 16.4844 -0.888261 1.72768 -38.7207 -1.27378 -0.0 0.0 0.0 -0.0 0.0 0.0 2.2227e-14 1.89084e-12 2.2854e-14 80.9307 23.1986 3.54885 -12.5659 -5.85362 22.7107 -0.00214359 1.32804 0.186677 8.01575e-10 -3.78713e-10 -4.67693e-09 1.37147e-09 -6.55817e-10 -8.08467e-09 8.0158e-10 -3.78713e-10 -4.67693e-09 7.73091 5.47488 0.417314 8.01573e-10 -3.78715e-10 -4.67692e-09 2.90554 0.965183 0.102902 8.01583e-10 -3.78714e-10 -4.67693e-09 10.2786 0.731801 0.0259123 8.01575e-10 -3.78712e-10 -4.67692e-09 2.22167 -0.733487 -0.20892 2.20801e-14 1.89004e-12 2.24596e-14 -80.2136 27.4528 -0.900443 13.4644 -6.53029 -24.4825 0.832854 -24.9938 3.75652 1.19891e-09 -4.46826e-10 4.06374e-09 2.0136e-09 -7.61403e-10 7.03781e-09 1.1989e-09 -4.46823e-10 4.06376e-09 -7.73091 5.47488 -0.417314 1.19891e-09 -4.46825e-10 4.06375e-09 -2.90554 0.965183 -0.102902 1.1989e-09 -4.46826e-10 4.06374e-09 -10.2786 0.731801 -0.0259123 1.19892e-09 -4.46824e-10 4.06374e-09 -2.22167 -0.733487 0.20892 -2.03217e-16 0.0 -3.88251e-19 8.83917 -51.8503 4.02069 -0.422689 43.5122 0.758039 -4.27871 -10.3379 -13.9886 2.03217e-16 0.0 3.88251e-19 10.6913 -49.7523 8.79009 3.79141 77.705 -4.50932 -0.0760582 -1.39597 -7.60604
106.969 78.8505 -36.0871 -729.58 -83.6848 748.145 4.5766 30.2439 -3.92074 -0.843706 -9.2275 -0.933012 1.85044 16.4658 -0.890256 1.72575 -38.7044 -1.27893 -0.0 0.0 0.0 -0.0 0.0 0.0 -3.90785e-15 -1.63593e-13 -3.77225e-15 80.8745 23.1541 3.55969 -12.5453 -5.83847 22.6703 -0.002423 1.40915 0.198083 6.52937e-10 -3.21496e-10 -2.26464e-09 1.12129e-09 -5.57186e-10 -3.91354e-09 6.52945e-10 -3.21498e-10 -2.26465e-09 7.73091 5.47488 0.417314 6.52938e-10 -3.21499e-10 -2.26464e-09 2.90554 0.965183 0.102902 6.52946e-10 -3.21499e-10 -2.26465e-09 10.2786 0.731801 0.0259123 6.52936e-10 -3.21496e-10 -2.26464e-09 2.22167 -0.733487 -0.20892 -4.12379e-15 -1.63794e-13 -4.05218e-15 -80.2354 27.5405 -0.915974 13.5043 -6.56142 -24.5621 0.840995 -25.1057 3.77572 6.49469e-10 -4.31366e-10 1.90689e-09 1.09618e-09 -7.41599e-10 3.30167e-09 6.49462e-10 -4.31363e-10 1.9069e-09 -7.73091 5.47488 -0.417314 6.49465e-10 -4.31365e-10 1.90689e-09 -2.90554 0.965183 -0.102902 6.49462e-10 -4.31366e-10 1.90689e-09 -10.2786 0.731801 -0.0259123 6.49475e-10 -4.31363e-10 1.90688e-09 -2.22167 -0.733487 0.20892 -2.03217e-16 0.0 -3.88251e-19 9.07988 -51.5561 3.99987 -0.423822 43.6346 0.772783 -4.35054 -10.7555 -13.884 2.03217e-16 0.0 3.88251e-19 10.633 -51.2465 8.59885 3.7672 77.618 -4.46834 -0.0935569 -1.96486 -7.04455
106.259 78.8714 -36.1765 -730.659 -83.7436 749.368 4.51654 30.2743 -3.77527 -0.824661 -9.29586 -0.895267 1.85445 16.4505 -0.891873 1.72312 -38.7066 -1.28383 -0.0 0.0 0.0 -0.0 0.0 0.0 -1.76716e-14 -1.27861e-12 -1.75924e-14 80.8273 23.1168 3.57184 -12.5265 -5.82472 22.6336 -0.00266223 1.47312 0.20708 4.8148e-10 -2.87802e-10 -6.24712e-10 8.29423e-10 -4.99118e-10 -1.07786e-09 4.8149e-10 -2.87806e-10 -6.24721e-10 7.73091 5.47488 0.417314 4.81483e-10 -2.87807e-10 -6.24715e-10 2.90554 0.965183 0.102902 4.81489e-10 -2.87807e-10 -6.24713e-10 10.2786 0.731801 0.0259123 4.81478e-10 -2.87804e-10 -6.24705e-10 2.22167 -0.733487 -0.20892 -1.7912e-14 -1.27861e-12 -1.77912e-14 -80.2523 27.6136 -0.921025 13.5438 -6.5922 -24.6406 0.848881 -25.2135 3.79426 2.54961e-10 -3.89915e-10 4.51747e-10 4.35864e-10 -6.74592e-10 7.80762e-10 2.54954e-10 -3.89913e-10 4.51753e-10 -7.73091 5.47488 -0.417314 2.54958e-10 -3.89915e-10 4.5175e-10 -2.90554 0.965183 -0.102902 2.54954e-10 -3.89915e-10 4.51748e-10 -10.2786 0.731801 -0.0259123 2.54968e-10 -3.89913e-10 4.51741e-10 -2.22167 -0.733487 0.20892 -2.03217e-16 0.0 -3.88251e-19 9.29798 -51.2696 3.96272 -0.42606 43.7903 0.787241 -4.41658 -11.1788 -13.7611 2.03217e-16 0.0 3.88251e-19 10.5476 -52.6888 8.40921 3.69131 77.396 -4.37579 -0.101525 -2.50982 -6.52424
105.549 78.8756 -36.2579 -731.766 -83.8076 750.607 4.45314 30.3059 -3.63772 -0.817904 -9.35666 -0.859999 1.85608 16.4394 -0.893706 1.72144 -38.7351 -1.28932 -0.0 0.0 0.0 -0.0 0.0 0.0 -1.67973e-14 -9.20776e-13 -7.19274e-15 80.7901 23.0829 3.5872 -12.5079 -5.81122 22.5973 -0.00283235 1.51786 0.213372 2.7149e-10 -3.11356e-10 -1.0735e-10 4.67627e-10 -5.39926e-10 -1.83134e-10 2.715e-10 -3.11359e-10 -1.07362e-10 7.73091 5.47488 0.417314 2.71494e-10 -3.11362e-10 -1.07355e-10 2.90554 0.965183 0.102902 2.71499e-10 -3.11363e-10 -1.07352e-10 10.2786 0.731801 0.0259123 2.71486e-10 -3.11358e-10 -1.07344e-10 2.22167 -0.733487 -0.20892 -1.69924e-14 -9.21277e-13 -7.35581e-15 -80.2651 27.6731 -0.911129 13.5857 -6.62505 -24.7242 0.856416 -25.3161 3.81193 1.01937e-10 -3.03277e-10 2.52798e-11 1.7718e-10 -5.25957e-10 4.15468e-11 1.0193e-10 -3.03274e-10 2.52855e-11 -7.73091 5.47488 -0.417314 1.01935e-10 -3.03277e-10 2.52792e-11 -2.90554 0.965183 -0.102902 1.01929e-10 -3.03276e-10 2.52799e-11 -10.2786 0.731801 -0.0259123 1.01943e-10 -3.03274e-10 2.52743e-11 -2.22167 -0.733487 0.20892 -2.03217e-16 0.0 -3.88251e-19 9.49072 -50.9988 3.9064 -0.42962 43.9881 0.801804 -4.47395 -11.6062 -13.6127 2.03217e-16 0.0 3.88251e-19 10.4375 -54.088 8.22454 3.57013 77.0399 -4.23849 -0.100614 -3.01462 -6.05153
104.838 78.8696 -36.3341 -732.914 -83.8672 751.878 4.37575 30.3447 -3.50046 -0.819065 -9.41349 -0.825681 1.85527 16.4306 -0.895177 1.72049 -38.7802 -1.29416 -0.0 0.0 0.0 -0.0 0.0 0.0 -7.91855e-15 2.73546e-13 1.75676e-14 80.76 23.0511 3.60443 -12.4888 -5.79738 22.5601 -0.00296304 1.55267 0.218267 1.70427e-11 -3.62343e-10 -2.01351e-10 2.71695e-11 -6.28107e-10 -3.4551e-10 1.70524e-11 -3.62344e-10 -2.01364e-10 7.73091 5.47488 0.417314 1.70469e-11 -3.6235e-10 -2.01355e-10 2.90554 0.965183 0.102902 1.70512e-11 -3.6235e-10 -2.01352e-10 10.2786 0.731801 0.0259123 1.70384e-11 -3.62346e-10 -2.01344e-10 2.22167 -0.733487 -0.20892 -8.02219e-15 2.71951e-13 1.74185e-14 -80.2766 27.7164 -0.887217 13.6293 -6.65924 -24.811 0.864368 -25.4237 3.8305 7.07799e-11 -1.83752e-10 1.56574e-10 1.20543e-10 -3.18599e-10 2.68318e-10 7.07711e-11 -1.83749e-10 1.56581e-10 -7.73091 5.47488 -0.417314 7.07777e-11 -1.83753e-10 1.56568e-10 -2.90554 0.965183 -0.102902 7.07697e-11 -1.83751e-10 1.56573e-10 -10.2786 0.731801 -0.0259123 7.07837e-11 -1.8375e-10 1.56571e-10 -2.22167 -0.733487 0.20892 -2.03217e-16 0.0 -3.88251e-19 9.65791 -50.7352 3.83381 -0.434295 44.2198 0.816686 -4.52333 -12.0411 -13.44 2.03217e-16 0.0 3.88251e-19 10.2956 -55.4368 8.04212 3.40978 76.5428 -4.06256 -0.0867158 -3.48986 -5.57581
104.124 78.8475 -36.4039 -734.128 -83.9178 753.198 4.30083 30.3929 -3.37199 -0.831167 -9.46696 -0.793694 1.85497 16.4237 -0.895381 1.71673 -38.8317 -1.29742 -0.0 0.0 0.0 -0.0 0.0 0.0 8.83936e-15 1.58141e-12 3.84019e-14 80.7371 23.031 3.62027 -12.4735 -5.78625 22.5301 -0.00304653 1.57528 0.221448 -2.42064e-10 -3.87246e-10 -5.02119e-10 -4.2183e-10 -6.71083e-10 -8.65458e-10 -2.42055e-10 -3.87245e-10 -5.02134e-10 7.73091 5.47488 0.417314 -2.4206e-10 -3.87253e-10 -5.02122e-10 2.90554 0.965183 0.102902 -2.42056e-10 -3.87253e-10 -5.0212e-10 10.2786 0.731801 0.0259123 -2.42069e-10 -3.8725e-10 -5.02112e-10 2.22167 -0.733487 -0.20892 8.83392e-15 1.57872e-12 3.82544e-14 -80.2832 27.743 -0.85857 13.6682 -6.68987 -24.8888 0.872355 -25.5311 3.84906 5.64667e-11 -6.53104e-11 4.63162e-10 9.04746e-11 -1.12799e-10 7.98319e-10 5.6457e-11 -6.53078e-11 4.63171e-10 -7.73091 5.47488 -0.417314 5.64653e-11 -6.53125e-11 4.63152e-10 -2.90554 0.965183 -0.102902 5.64546e-11 -6.53099e-11 4.63162e-10 -10.2786 0.731801 -0.0259123 5.64687e-11 -6.53101e-11 4.63162e-10 -2.22167 -0.733487 0.20892 -2.03217e-16 0.0 -3.88251e-19 9.80729 -50.4666 3.75019 -0.439878 44.4718 0.830952 -4.56882 -12.4856 -13.258 2.03217e-16 0.0 3.88251e-19 10.1251 -56.7202 7.85525 3.21928 75.9077 -3.856 -0.0674755 -3.96303 -5.12003
